<svg width="133" height="133" viewBox="0 0 133 133" fill="none" xmlns="http://www.w3.org/2000/svg">
<path d="M66.0399 0C74.7974 0 83.1961 3.47888 89.3886 9.67132C95.581 15.8638 99.0599 24.2625 99.0599 33.02C99.0599 41.7774 95.581 50.1762 89.3886 56.3686C83.1961 62.561 74.7974 66.0399 66.0399 66.0399C57.2825 66.0399 48.8837 62.561 42.6913 56.3686C36.4988 50.1762 33.02 41.7774 33.02 33.02C33.02 24.2625 36.4988 15.8638 42.6913 9.67132C48.8837 3.47888 57.2825 0 66.0399 0ZM66.0399 82.5499C102.527 82.5499 132.08 97.3263 132.08 115.57V132.08H0V115.57C0 97.3263 29.5529 82.5499 66.0399 82.5499Z" fill="#FECC00"/>
</svg>
